#!OML:ASF E:\Steps\Project 1\Capture day 1\Session 2\Subject.ASF
:FULLY-SPECIFIED
:DEGREES
405
root 8.91805 16.3588 8.99305 25.6764 3.59861 2.57708
lowerback -26.555 -1.71989 -6.21795
upperback -2.82198 -0.195777 -1.73276
thorax 11.656 -0.331426 1.54503
lowerneck 0.475921 -3.91898 -1.18993
upperneck -13.7019 -4.74171 5.22445
head -4.44736 -2.52594 2.16525
rclavicle -2.38542e-015 0
rhumerus -35.1089 -27.4018 -75.0462
rradius 18.5934
rwrist 13.0706
rhand -9.43847 -51.1366
rfingers 7.12502
rthumb 16.5243 -440.453
lclavicle -2.38542e-015 0
lhumerus -23.9455 0.362481 85.6867
lradius 32.9843
lwrist 1.05139
lhand -27.4368 -16.2349
lfingers 7.12502
lthumb -0.841967 13.7432
rfemur -24.257 7.52458 17.5326
rtibia 13.7816
rfoot -21.6102 -15.3056
rtoes -40.0937
lfemur -26.4068 -10.6652 -17.6954
ltibia 10.7504
lfoot -6.85605 -2.01055
ltoes -21.6729
406
root 8.92265 16.3626 8.99982 25.4794 3.53154 2.61124
lowerback -26.2476 -1.76529 -6.32456
upperback -2.90037 -0.25888 -1.69891
thorax 11.4074 -0.359277 1.62638
lowerneck 0.0769319 -3.83553 -1.18871
upperneck -13.7222 -4.68575 4.71823
head -4.38892 -2.47105 1.97753
rclavicle -9.93923e-017 1.74931e-014
rhumerus -35.2459 -27.2172 -75.162
rradius 18.8452
rwrist 12.5246
rhand -9.45999 -51.1273
rfingers 7.12502
rthumb 16.5036 -440.445
lclavicle -9.93923e-017 1.74931e-014
lhumerus -24.1333 0.343077 85.6352
lradius 33.0126
lwrist 1.18638
lhand -27.5375 -16.6497
lfingers 7.12502
lthumb -0.939175 13.3279
rfemur -23.9283 7.58111 17.5006
rtibia 13.5581
rfoot -21.4293 -15.3909
rtoes -40.4961
lfemur -26.0663 -10.4809 -17.8679
ltibia 10.5811
lfoot -6.77753 -2.15245
ltoes -22.2481
407
root 8.92698 16.3641 9.00614 25.3015 3.40741 2.83058
lowerback -26.0626 -1.85513 -6.64033
upperback -2.89014 -0.299786 -1.71221
thorax 11.3255 -0.390633 1.77911
lowerneck 0.556276 -3.81905 -1.36151
upperneck -13.5365 -4.62224 5.20652
head -4.40385 -2.45733 2.18259
rclavicle 1.98785e-016 -1.66979e-014
rhumerus -35.2312 -26.7313 -75.5153
rradius 19.3515
rwrist 11.5011
rhand -9.39493 -51.1948
rfingers 7.12502
rthumb 16.5662 -440.508
lclavicle 1.98785e-016 -1.66979e-014
lhumerus -24.3273 0.277743 85.6068
lradius 33.327
lwrist 1.37833
lhand -27.5227 -16.1499
lfingers 7.12502
lthumb -0.924896 13.8279
rfemur -23.6124 7.52513 17.2492
rtibia 13.333
rfoot -21.2885 -15.3448
rtoes -40.7226
lfemur -25.7592 -10.3071 -18.285
ltibia 10.4981
lfoot -6.75794 -2.35308
ltoes -22.4937
408
root 8.93496 16.3594 9.01511 25.1453 3.06019 3.02291
lowerback -26.0631 -1.86446 -6.90289
upperback -2.82446 -0.227918 -1.76113
thorax 11.3965 -0.371627 1.89787
lowerneck 0.514068 -3.77467 -1.40615
upperneck -13.5792 -4.56698 5.17334
head -4.41295 -2.42623 2.1774
rclavicle -9.93923e-017 -1.59028e-015
rhumerus -35.1433 -26.4941 -75.761
rradius 19.7283
rwrist 10.8729
rhand -8.96161 -51.0411
rfingers 7.12502
rthumb 16.9834 -440.319
lclavicle -9.93923e-017 -1.59028e-015
lhumerus -24.4949 0.300129 85.5712
lradius 33.6959
lwrist 1.49827
lhand -27.3139 -15.3258
lfingers 7.12502
lthumb -0.723292 14.6527
rfemur -23.3587 7.46239 16.9524
rtibia 13.1866
rfoot -21.595 -14.9471
rtoes -39.8966
lfemur -25.3556 -10.2762 -18.6643
ltibia 10.2568
lfoot -6.7147 -2.16876
ltoes -22.941
409
root 8.96303 16.3283 9.09485 25.6651 3.39444 2.46196
lowerback -27.9799 -1.86074 -5.99725
upperback -2.63292 -0.32824 -1.65504
thorax 12.6394 -0.409345 1.4384
lowerneck 0.451305 -3.72232 -1.38315
upperneck -13.5031 -4.49621 5.18338
head -4.37591 -2.39199 2.16976
rclavicle -6.85807e-015 -2.38542e-015
rhumerus -35.0216 -26.4801 -76.0184
rradius 19.952
rwrist 10.5923
rhand -8.85051 -51.0937
rfingers 7.12502
rthumb 17.0903 -440.362
lclavicle -6.85807e-015 -2.38542e-015
lhumerus -24.5042 0.20811 85.4553
lradius 33.7956
lwrist 1.62014
lhand -27.2042 -15.2032
lfingers 7.12502
lthumb -0.617294 14.7757
rfemur -22.9599 6.51817 17.8536
rtibia 12.2147
rfoot -22.531 -13.8465
rtoes -37.7549
lfemur -25.1631 -10.3591 -18.2364
ltibia 9.55221
lfoot -6.64052 -2.27816
ltoes -23.3464
410
root 8.96539 16.3322 9.09087 25.6037 3.07599 2.66215
lowerback -27.8902 -1.88894 -6.28416
upperback -2.63144 -0.270437 -1.75602
thorax 12.5907 -0.394058 1.50994
lowerneck 0.243897 -3.7097 -1.28206
upperneck -13.4422 -4.48564 5.09838
head -4.31712 -2.38557 2.1135
rclavicle -1.88845e-015 -9.54166e-015
rhumerus -34.9236 -26.6492 -76.1992
rradius 19.9237
rwrist 10.5174
rhand -8.9689 -51.3839
rfingers 7.12502
rthumb 16.9764 -440.662
lclavicle -1.88845e-015 -9.54166e-015
lhumerus -24.487 0.133649 85.2456
lradius 33.6501
lwrist 1.56792
lhand -27.1056 -15.4971
lfingers 7.12502
lthumb -0.522111 14.482
rfemur -22.8806 6.79396 17.4547
rtibia 12.0264
rfoot -21.6798 -14.0509
rtoes -39.3451
lfemur -25.0577 -10.4048 -18.4791
ltibia 9.5157
lfoot -6.66435 -2.00301
ltoes -23.3322
